<?xml version="1.0" standalone="no"?>
<!DOCTYPE svg PUBLIC "-//W3C//DTD SVG 20010904//EN"
 "http://www.w3.org/TR/2001/REC-SVG-20010904/DTD/svg10.dtd">
<svg version="1.0" xmlns="http://www.w3.org/2000/svg"
 width="1024.000000pt" height="1024.000000pt" viewBox="0 0 1024.000000 1024.000000"
 preserveAspectRatio="xMidYMid meet">
<metadata>
Created by potrace 1.11, written by Peter Selinger 2001-2013
</metadata>
<g transform="translate(0.000000,1024.000000) scale(0.100000,-0.100000)"
fill="#000000" stroke="none">
<path d="M0 5120 l0 -5120 5120 0 5120 0 0 5120 0 5120 -5120 0 -5120 0 0
-5120z m5504 2374 c360 -68 764 -410 1051 -889 10 -16 16 -16 89 4 206 57 315
155 316 285 0 43 5 53 38 86 48 49 95 59 158 35 66 -25 98 -77 97 -159 -2
-184 -117 -339 -328 -441 -49 -24 -117 -51 -150 -60 -33 -10 -63 -20 -68 -24
-4 -4 13 -61 38 -127 234 -617 279 -1269 130 -1889 -108 -448 -310 -824 -595
-1103 -301 -295 -674 -458 -1099 -478 -479 -23 -911 199 -1156 596 -15 25 -29
47 -31 49 -2 2 -32 -22 -66 -54 -358 -332 -732 -496 -1128 -496 -344 0 -594
94 -801 300 -230 230 -351 555 -379 1015 -23 387 51 807 226 1274 30 79 54
144 54 146 0 2 -19 8 -42 15 -54 16 -186 82 -258 129 -73 48 -216 192 -265
267 -47 71 -98 187 -120 270 -38 145 -39 379 -2 466 41 97 164 124 238 53 40
-38 52 -83 44 -157 -39 -324 83 -565 355 -706 72 -37 178 -77 184 -70 2 2 38
63 81 134 371 619 852 1027 1320 1118 238 47 405 21 535 -84 127 -102 181
-295 130 -461 -97 -313 -591 -693 -1160 -889 -220 -77 -483 -129 -645 -129
-89 0 -83 6 -150 -160 -89 -222 -161 -495 -197 -750 -20 -146 -17 -539 6 -665
39 -216 102 -383 194 -510 166 -230 453 -356 746 -325 291 30 566 175 843 444
l107 103 -42 124 c-106 316 -154 629 -154 1009 0 222 10 319 53 513 43 196
134 418 230 559 262 385 731 398 914 25 84 -173 115 -436 80 -699 -61 -467
-318 -1053 -657 -1500 l-59 -78 28 -47 c15 -26 53 -82 84 -124 148 -199 314
-321 526 -386 81 -25 102 -27 268 -27 140 -1 199 3 265 18 438 95 785 384
1013 841 222 446 305 1048 222 1609 -34 225 -111 499 -193 689 l-39 89 -211
-2 c-249 -1 -385 11 -582 50 -450 90 -740 274 -832 525 -31 87 -36 239 -10
321 85 269 384 398 756 328z m3114 -2239 c43 -9 114 -34 161 -56 174 -85 300
-267 271 -393 -17 -75 -108 -137 -177 -120 -50 12 -82 43 -114 111 -73 153
-204 225 -367 202 -94 -13 -155 -44 -211 -105 -60 -66 -81 -123 -81 -223 1
-137 55 -206 265 -342 66 -43 160 -104 210 -136 256 -165 396 -337 441 -541
24 -108 15 -299 -18 -404 -99 -304 -356 -489 -720 -517 -292 -24 -544 56 -714
224 -143 141 -189 290 -150 477 21 96 60 171 128 244 131 140 347 192 504 120
64 -30 95 -76 96 -144 0 -64 -22 -105 -68 -127 -32 -15 -44 -16 -95 -5 -32 7
-83 10 -114 8 -46 -4 -61 -10 -90 -38 -41 -40 -55 -82 -55 -166 0 -78 32 -144
104 -212 97 -92 210 -133 366 -133 264 0 457 134 515 358 28 108 14 226 -42
343 -42 89 -183 221 -320 300 -202 117 -267 162 -359 254 -137 138 -194 265
-194 436 0 249 170 477 417 559 126 42 280 52 411 26z"/>
<path d="M5265 7209 c-187 -19 -261 -134 -184 -287 82 -166 349 -296 707 -346
134 -19 437 -32 444 -20 9 14 -128 190 -232 298 -246 255 -502 378 -735 355z"/>
<path d="M3520 6803 c-69 -12 -206 -60 -295 -104 -294 -146 -622 -475 -830
-833 l-29 -49 65 6 c207 22 549 140 789 272 363 201 607 447 586 590 -8 50
-35 89 -76 110 -28 14 -147 19 -210 8z"/>
<path d="M4368 5850 c-169 -51 -324 -348 -395 -755 -24 -137 -23 -483 2 -690
17 -145 60 -373 87 -465 l14 -45 46 72 c212 328 387 745 467 1116 58 267 39
587 -42 708 -39 58 -107 81 -179 59z"/>
</g>
</svg>
