<?xml version="1.0" encoding="UTF-8"?>
<svg width="48px" height="48px" viewBox="0 0 48 48" version="1.1" xmlns="http://www.w3.org/2000/svg" xmlns:xlink="http://www.w3.org/1999/xlink">
    <title>ws-bitbucket-icon</title>
    <g id="ws-bitbucket-icon" stroke="none" stroke-width="1" fill="none" fill-rule="evenodd">
        <g id="bitbucket-icon" transform="translate(7.000000, 4.000000)" fill="#0D888C">
            <path d="M29.92875,28.085 C29.58875,28.085 29.42,28.25625 29.42,28.25625 C29.42,28.25625 25.1625,31.67125 17.5,31.67125 C9.8375,31.67125 5.59,28.25375 5.59,28.25375 C5.59,28.25375 5.25,28.085 5.08125,28.085 C4.74,28.085 4.3975,28.25625 4.3975,28.76625 L4.3975,28.935 L5.59,35.40375 C6.1,37.9575 11.20875,40 17.335,40 C23.46125,40 28.585,37.9575 29.08125,35.40375 C29.08125,35.06375 29.59,32.51125 30.2625,28.935 L30.2625,28.76625 C30.425,28.425 30.2625,28.085 29.9175,28.085 L29.92875,28.085 Z M17.50875,0 C7.97125,0 0.14,2.55 0.14,5.78375 C0.14,6.6375 2.1825,18.72125 3.035,23.4875 C3.375,25.7 8.995,28.75 17.50375,28.75 C26.0125,28.75 31.46125,25.6975 31.9725,23.48125 L34.8475,5.78375 C34.67875,2.5625 27.02875,0.0125 17.49,0.0125 L17.50875,0 Z M17.50875,24.85 C16.0584632,24.8690227 14.662044,24.3011201 13.6366836,23.2752888 C12.6113232,22.2494576 12.0440616,20.8527779 12.06375,19.4025 C12.06375,16.33125 14.44375,13.9525 17.5075,13.9525 C18.958877,13.9327735 20.3565343,14.5008862 21.3825544,15.5276126 C22.4085745,16.554339 22.9757253,17.9523869 22.955,19.40375 C22.955,22.27875 20.57125,24.83625 17.5075,24.83625 L17.50875,24.85 Z M17.51,16.51625 C19.0121321,16.5230935 20.2281565,17.7391179 20.235,19.24125 C20.235,20.7465711 19.0146961,21.966875 17.509375,21.966875 C16.0040539,21.966875 14.78375,20.7465711 14.78375,19.24125 C14.7905935,17.7391179 16.0066179,16.5230935 17.50875,16.51625 L17.51,16.51625 Z M17.50625,7.48625 C11.37625,7.48625 6.44125,6.46875 6.44125,5.10625 C6.44125,3.74375 11.37625,2.7225 17.50625,2.7225 C23.63625,2.7225 28.57125,3.74375 28.57125,5.1025 C28.57125,6.46125 23.6325,7.5 17.50625,7.5 L17.50625,7.48625 Z" id="Shape"></path>
        </g>
    </g>
</svg>