<?xml version="1.0" encoding="UTF-8"?>
<svg width="48px" height="48px" viewBox="0 0 48 48" version="1.1" xmlns="http://www.w3.org/2000/svg" xmlns:xlink="http://www.w3.org/1999/xlink">
    <title>ws-github-icon</title>
    <g id="ws-github-icon" stroke="none" stroke-width="1" fill="none" fill-rule="evenodd">
        <g id="iconmonstr-github-1" transform="translate(6.000000, 6.000000)" fill="#0D888C" fill-rule="nonzero">
            <path d="M18.5,0 C8.28491667,0 0,8.283375 0,18.5 C0,26.6739167 5.30025,33.6083333 12.6524583,36.0549583 C13.5759167,36.2260833 13.875,35.6525833 13.875,35.1654167 L13.875,31.7213333 C8.72891667,32.8405833 7.65745833,29.5383333 7.65745833,29.5383333 C6.81570833,27.4000417 5.60241667,26.8311667 5.60241667,26.8311667 C3.92354167,25.682625 5.730375,25.7072917 5.730375,25.7072917 C7.58808333,25.8367917 8.5655,27.6143333 8.5655,27.6143333 C10.2150833,30.44175 12.8929583,29.6246667 13.949,29.151375 C14.1139583,27.9565833 14.5934167,27.1395 15.12375,26.6785417 C11.0152083,26.2083333 6.69545833,24.6219583 6.69545833,17.5349167 C6.69545833,15.5137917 7.4185,13.8642083 8.60095833,12.5692083 C8.40979167,12.1020833 7.77616667,10.2197083 8.78133333,7.672875 C8.78133333,7.672875 10.3353333,7.17645833 13.870375,9.569125 C15.34575,9.15904167 16.9275,8.954 18.5,8.94629167 C20.0725,8.954 21.6557917,9.15904167 23.13425,9.569125 C26.6662083,7.17645833 28.217125,7.672875 28.217125,7.672875 C29.2238333,10.22125 28.5902083,12.103625 28.3990417,12.5692083 C29.586125,13.8642083 30.303,15.5153333 30.303,17.5349167 C30.303,24.6404583 25.9755417,26.20525 21.8562083,26.663125 C22.519125,27.236625 23.125,28.3620417 23.125,30.0887083 L23.125,35.1654167 C23.125,35.6572083 23.421,36.2353333 24.359875,36.0534167 C31.7059167,33.6037083 37,26.6708333 37,18.5 C37,8.283375 28.716625,0 18.5,0 Z" id="Path"></path>
        </g>
    </g>
</svg>