<?xml version="1.0" encoding="UTF-8"?>
<svg width="48px" height="48px" viewBox="0 0 48 48" version="1.1" xmlns="http://www.w3.org/2000/svg" xmlns:xlink="http://www.w3.org/1999/xlink">
    <title>ws-instagram-icon</title>
    <g id="ws-instagram-icon" stroke="none" stroke-width="1" fill="none" fill-rule="evenodd">
        <g id="social-instagram" transform="translate(6.000000, 6.000000)" fill="#0D888C">
            <circle id="Oval" cx="18.5" cy="18.5" r="7.5"></circle>
            <g id="Group">
                <path d="M10.9371039,10.8488805 C12.9700857,8.8158987 15.6730078,7.68427532 18.5480519,7.68427532 C21.4230961,7.68427532 24.1260182,8.82185714 26.159,10.854839 C27.4489065,12.1447455 28.3704468,13.6948052 28.8722052,15.4246753 L36.9519481,15.4246753 L36.9519481,4.56493506 C36.9519481,2.01722078 34.9827792,0.0480519481 32.4350649,0.0480519481 L4.75714286,0.0480519481 C2.20942857,0.0480519481 0.0480519481,2.01722078 0.0480519481,4.56493506 L0.0480519481,15.4246753 L8.2238026,15.4246753 C8.72565714,13.6948052 9.6471974,12.138787 10.9371039,10.8488805 L10.9371039,10.8488805 Z M33.8766234,8.0438961 C33.8766234,8.72325455 33.3259481,9.27402597 32.6464935,9.27402597 L28.9561039,9.27402597 C28.2767455,9.27402597 27.725974,8.72335065 27.725974,8.0438961 L27.725974,4.35350649 C27.725974,3.67414805 28.2766494,3.12337662 28.9561039,3.12337662 L32.6464935,3.12337662 C33.3258519,3.12337662 33.8766234,3.67405195 33.8766234,4.35350649 L33.8766234,8.0438961 L33.8766234,8.0438961 Z" id="Shape"></path>
                <path d="M26.159,26.0709688 C24.1260182,28.1039506 21.4230961,29.2115481 18.5480519,29.2115481 C15.6730078,29.2115481 12.9700857,28.1100052 10.9371039,26.0770234 C8.90787013,24.0477896 7.78883636,21.287013 7.78460779,18.5 L0.0480519481,18.5 L0.0480519481,32.2428571 C0.0480519481,34.7905714 2.20942857,36.9519481 4.75714286,36.9519481 L32.4350649,36.9519481 C34.9827792,36.9519481 36.9519481,34.7905714 36.9519481,32.2428571 L36.9519481,18.5 L29.3114961,18.5 C29.3073636,21.287013 28.1883299,24.0417351 26.159,26.0709688 L26.159,26.0709688 Z" id="Shape"></path>
            </g>
        </g>
    </g>
</svg>