<?xml version="1.0" encoding="UTF-8"?>
<svg width="48px" height="48px" viewBox="0 0 48 48" version="1.1" xmlns="http://www.w3.org/2000/svg" xmlns:xlink="http://www.w3.org/1999/xlink">
    <title>ws-linkedIn-icon</title>
    <g id="ws-linkedIn-icon" stroke="none" stroke-width="1" fill="none" fill-rule="evenodd">
        <g id="social-linkedin" transform="translate(6.000000, 6.000000)" fill="#0D888C">
            <path d="M33.121077,0 L3.0757965,0 C1.43474654,0 0,1.1815577 0,2.80385517 L0,32.9148216 C0,34.5464965 1.43474654,36 3.0757965,36 L33.1116995,36 C34.7621269,36 35.9999475,34.537119 35.9999475,32.9148216 L35.9999475,2.80385517 C36.0093249,1.1815577 34.7621269,0 33.121077,0 L33.121077,0 Z M11.1591397,30.0078145 L6.00155415,30.0078145 L6.00155415,13.9723886 L11.1591397,13.9723886 L11.1591397,30.0078145 L11.1591397,30.0078145 Z M8.75851809,11.5342537 L8.72100837,11.5342537 C7.07058098,11.5342537 6.00155415,10.3058088 6.00155415,8.76790831 C6.00155415,7.20187549 7.09871327,6.00156291 8.78665037,6.00156291 C10.4745875,6.00156291 11.5061046,7.19249805 11.5436143,8.76790831 C11.5436143,10.3058088 10.4745875,11.5342537 8.75851809,11.5342537 L8.75851809,11.5342537 Z M30.0077707,30.0078145 L24.8501852,30.0078145 L24.8501852,21.2399062 C24.8501852,19.1393592 24.0999909,17.7046106 22.2338826,17.7046106 C20.8085135,17.7046106 19.964545,18.6704871 19.5894478,19.6082313 C19.4487864,19.9458192 19.4112767,20.4053139 19.4112767,20.874186 L19.4112767,30.0078145 L14.2536911,30.0078145 L14.2536911,13.9723886 L19.4112767,13.9723886 L19.4112767,16.2042198 C20.161471,15.1351915 21.3336495,13.597291 24.0624812,13.597291 C27.4477328,13.597291 30.0077707,15.8291222 30.0077707,20.6397499 L30.0077707,30.0078145 L30.0077707,30.0078145 Z" id="Shape"></path>
        </g>
    </g>
</svg>