<?xml version="1.0" encoding="UTF-8"?>
<svg width="48px" height="48px" viewBox="0 0 48 48" version="1.1" xmlns="http://www.w3.org/2000/svg" xmlns:xlink="http://www.w3.org/1999/xlink">
    <title>ws-twitter-icon</title>
    <g id="ws-twitter-icon" stroke="none" stroke-width="1" fill="none" fill-rule="evenodd">
        <g id="social-twitter" transform="translate(5.000000, 8.000000)" fill="#0D888C">
            <path d="M39,3.8717272 C37.5619835,4.52694257 36.0247934,4.96942568 34.4049587,5.17364865 C36.0578512,4.15253378 37.3305785,2.53576858 37.9256198,0.612668919 C36.3801653,1.55720017 34.6694215,2.2464527 32.8429752,2.6123522 C31.3801653,1.00409628 29.2975207,0 27,0 C22.5785124,0 19,3.69303209 19,8.24550253 C19,8.89220861 19.0661157,9.52189611 19.2066116,10.1260557 C12.553719,9.78568412 6.65289256,6.50109797 2.7107438,1.50614443 C2.02479339,2.72297297 1.62809917,4.14402449 1.62809917,5.65016892 C1.62809917,8.50929054 3.04958678,11.0365498 5.19834711,12.5171664 C3.87603306,12.4831292 2.63636364,12.1087204 1.56198347,11.4875422 L1.56198347,11.5896537 C1.56198347,15.5890203 4.32231405,18.9161529 7.98347107,19.6734797 C7.31404959,19.8606841 6.60330579,19.9627956 5.87603306,19.9627956 C5.36363636,19.9627956 4.85950413,19.9117399 4.37190083,19.8096284 C5.38842975,23.0857052 8.34710744,25.4683066 11.8512397,25.5363809 C9.11570248,27.7487965 5.66115702,29.0677365 1.90909091,29.0677365 C1.26446281,29.0677365 0.628099174,29.02519 2.77111667e-14,28.9486064 C3.52892562,31.3141892 7.73553719,32.6756757 12.2479339,32.6756757 C26.9834711,32.6756757 35.0330579,20.1074535 35.0330579,9.20705236 C35.0330579,8.84966216 35.0247934,8.49227196 35.0082645,8.14339105 C36.5702479,6.97761824 37.9256198,5.53103885 39,3.8717272 L39,3.8717272 Z" id="Shape"></path>
        </g>
    </g>
</svg>