<?xml version="1.0" encoding="UTF-8"?>
<svg width="48px" height="48px" viewBox="0 0 48 48" version="1.1" xmlns="http://www.w3.org/2000/svg" xmlns:xlink="http://www.w3.org/1999/xlink">
    <title>ws_email-icon</title>
    <g id="ws_email-icon" stroke="none" stroke-width="1" fill="none" fill-rule="evenodd">
        <g id="iconmonstr-email-13" transform="translate(5.000000, 5.000000)" fill="#00888D" fill-rule="nonzero">
            <path d="M21.7201667,16.6693333 C21.7201667,17.9233333 21.2958333,19.56525 20.6371667,20.8525 C19.0395833,23.9875 15.7874167,23.9669167 15.7874167,20.6308333 C15.7874167,19.3863333 16.2149167,17.7824167 16.8751667,16.5458333 C18.49175,13.4979167 21.7201667,13.9745 21.7201667,16.6693333 L21.7201667,16.6693333 Z M38,19 C38,29.49275 29.49275,38 19,38 C8.50725,38 0,29.49275 0,19 C0,8.50725 8.50725,0 19,0 C29.49275,0 38,8.50725 38,19 Z M30.0833333,17.1095 C30.0833333,11.97 25.9175833,8.24125 20.178,8.24125 C12.3135833,8.24125 7.91666667,13.2271667 7.91666667,19.4401667 C7.91666667,25.2541667 11.82275,29.75875 19.038,29.75875 C23.028,29.75875 25.5676667,28.60925 27.1478333,27.7194167 L26.0600833,26.1503333 C24.4419167,27.08925 22.496,27.949 19.3214167,27.949 C13.8921667,27.949 10.2441667,24.46725 10.2441667,19.2834167 C10.2441667,10.23625 20.3790833,8.58325 24.833,11.2543333 C28.9876667,13.8541667 28.8293333,20.0861667 25.7545,22.4690833 C24.1173333,23.7769167 22.27275,23.7341667 22.87125,21.2720833 C22.87125,21.2720833 24.79025,14.1645 25.0150833,13.395 L22.8554167,13.395 L22.4263333,14.9023333 C21.9861667,13.6594167 20.93325,12.8519167 19.4005833,12.8519167 C16.2054167,12.8519167 13.5074167,16.3194167 13.5074167,20.425 C13.5074167,23.1641667 14.953,24.8646667 17.27575,24.8646667 C19.3071667,24.8646667 20.36325,23.7151667 21.01875,22.69075 C20.54375,27.27925 30.0833333,25.156 30.0833333,17.1095 Z" id="Shape"></path>
        </g>
    </g>
</svg>